HIERARCHY
ROOT Hips
{
  OFFSET 24.7126 85.8577 186.189
  CHANNELS 6 Xposition Yposition Zposition Zrotation Xrotation Yrotation
  JOINT ToSpine
  {
    OFFSET -2.69724 7.43032 -0.144315
    CHANNELS 3 Zrotation Xrotation Yrotation
    JOINT Spine
    {
      OFFSET -0.0310711 10.7595 1.96963
      CHANNELS 3 Zrotation Xrotation Yrotation
      JOINT Spine1
      {
        OFFSET 13.1342 3.43533 0.764692
        CHANNELS 3 Zrotation Xrotation Yrotation
        JOINT Neck
        {
          OFFSET 29.8703 7.82586 -0.130764
          CHANNELS 3 Zrotation Xrotation Yrotation
          JOINT Head
          {
            OFFSET 9.52751 0.295786 -0.907742
            CHANNELS 3 Zrotation Xrotation Yrotation
            End Site
            {
              OFFSET 16.4037 0.713936 2.7358
            }
          }
        }
        JOINT LeftShoulder
        {
          OFFSET 27.5574 4.95586 2.47156
          CHANNELS 3 Zrotation Xrotation Yrotation
          JOINT LeftArm
          {
            OFFSET 1.20734 -0.998971 20.1238
            CHANNELS 3 Zrotation Xrotation Yrotation
            JOINT LeftForeArm
            {
              OFFSET 26.8049 -0.0536703 -0.155908
              CHANNELS 3 Zrotation Xrotation Yrotation
              JOINT LeftHand
              {
                OFFSET 26.6817 0 0.320147
                CHANNELS 3 Zrotation Xrotation Yrotation
                End Site
                {
                  OFFSET 18.6119 0 0.382219
                }
              }
            }
          }
        }
        JOINT RightShoulder
        {
          OFFSET 27.5927 4.71444 -2.65209
          CHANNELS 3 Zrotation Xrotation Yrotation
          JOINT RightArm
          {
            OFFSET 2.83739 -1.17114 -18.7564
            CHANNELS 3 Zrotation Xrotation Yrotation
            JOINT RightForeArm
            {
              OFFSET 28.839 -0.0548439 1.22491
              CHANNELS 3 Zrotation Xrotation Yrotation
              JOINT RightHand
              {
                OFFSET 26.5114 0 -0.101894
                CHANNELS 3 Zrotation Xrotation Yrotation
                End Site
                {
                  OFFSET 18.2168 0 0
                }
              }
            }
          }
        }
      }
    }
  }
  JOINT LeftUpLeg
  {
    OFFSET -4.76168 -1.9167 -10.2353
    CHANNELS 3 Zrotation Xrotation Yrotation
    JOINT LeftLeg
    {
      OFFSET 2.55951 -42.0585 -8.02213
      CHANNELS 3 Zrotation Xrotation Yrotation
      JOINT LeftFoot
      {
        OFFSET 3.16357 -42.5282 -3.95426
        CHANNELS 3 Zrotation Xrotation Yrotation
        JOINT LeftToeBase
        {
          OFFSET 0.346054 -6.02161 12.8035
          CHANNELS 3 Zrotation Xrotation Yrotation
          End Site
          {
            OFFSET 0.134235 -1.35082 5.13018
          }
        }
      }
    }
  }
  JOINT RightUpLeg
  {
    OFFSET -4.94151 -1.41743 10.6446
    CHANNELS 3 Zrotation Xrotation Yrotation
    JOINT RightLeg
    {
      OFFSET -2.56294 -42.0364 -7.94377
      CHANNELS 3 Zrotation Xrotation Yrotation
      JOINT RightFoot
      {
        OFFSET -3.0952 -42.555 -4.02241
        CHANNELS 3 Zrotation Xrotation Yrotation
        JOINT RightToeBase
        {
          OFFSET -0.0828122 -6.13587 12.8035
          CHANNELS 3 Zrotation Xrotation Yrotation
          End Site
          {
            OFFSET -0.131328 -1.35082 5.13018
          }
        }
      }
    }
  }
}
MOTION
Frames:	13
Frame Time:	0.0333333
31.6285 95.0062 165.172 62.3822 -55.5652 -20.7465 -70.1915 0 88.8779 76.9191 73.2767 5.17752 -1.48844 18.9984 14.7508 -135.64 37.4928 152.777 -124.236 75.6616 143.021 -1.01723 -19.6102 -32.2821 -59.4853 37.619 -122.006 15.5503 -4.50001 -104.898 0.420957 0.000575795 0.35866 -2.13245 6.72545 46.0438 -125.352 -10.2995 100.359 10.0162 -0.498689 87.0145 0.58676 0.000329834 0.0646656 -55.775 8.50653 93.8769 -1.62447 34.1124 -2.3325 4.06041 -11.9952 -1.13673 4.37136 -11.6904 14.1732 -39.8585 -14.4987 81.5255 0.75916 29.4442 0.377759 -0.657936 3.90949 -0.0468336 0.721922 -5.89863 -0.169095 
31.7053 95.0186 165.173 61.6582 -55.3351 -21.6354 -70.1915 0 88.8779 74.175 73.0523 7.77355 -1.11705 18.9845 14.6255 -135.324 37.4772 152.442 -123.661 75.7213 143.191 -1.01999 -19.599 -32.3416 -59.7231 37.6591 -121.852 16.2278 -4.68716 -104.841 0.420957 0.000575795 0.35866 -2.1538 6.77384 46.1211 -125.075 -10.3773 100.63 10.2651 -0.492206 87.112 0.58676 0.000329834 0.0646656 -55.4038 8.02452 93.7164 -1.5945 33.9435 -2.21541 3.41043 -12.1229 -1.12925 4.25055 -11.5464 14.5386 -39.2057 -14.7604 81.7978 0.713578 29.6693 0.377516 -0.789365 3.79483 -0.0165235 0.70389 -5.65289 -0.368219 
31.5906 95.0999 165.185 61.3902 -55.1904 -21.6678 -70.1915 0 88.8779 73.8359 73.0583 7.91224 -1.22929 18.8633 15.0196 -134.858 37.7246 152.429 -126.341 76.9961 147.125 -1.03491 -19.6423 -32.401 -59.4847 37.4907 -122.026 15.6338 -4.48262 -104.759 0.420957 0.000575795 0.35866 -2.14286 6.7341 46.1511 -125.313 -10.5612 100.711 10.9206 -0.524932 87.107 0.58676 0.000329834 0.0646656 -54.9905 8.33706 93.7096 -1.61143 34.1061 -2.07095 1.49175 -12.9549 -1.1422 2.94838 -9.58919 14.8612 -39.1239 -14.4063 81.8743 0.726553 29.5483 0.813988 -0.289349 3.11779 -0.0489678 0.854686 -3.77537 -3.1111 
31.622 95.1377 165.21 61.3366 -55.2259 -21.7741 -70.1915 0 88.8779 73.5235 73.0183 8.32002 -1.09539 18.9265 14.7686 -134.765 37.6702 152.151 -125.151 76.7228 145.947 -0.996673 -19.5712 -32.1479 -59.4746 37.7151 -122.109 15.74 -4.51023 -104.745 0.420957 0.000575795 0.35866 -2.14397 6.71603 46.2518 -125.433 -10.6281 100.804 11.1521 -0.548249 87.0497 0.58676 0.000329834 0.0646656 -55.0323 8.22665 93.5701 -1.54783 34.0681 -1.69276 1.20418 -14.1797 -1.22423 2.50531 -8.71949 13.8955 -39.2043 -14.5378 81.6695 0.798525 29.3696 0.891368 -0.574821 3.29499 -0.0165778 0.797947 -3.90641 -2.6112 
31.6236 95.115 165.198 61.2943 -55.0863 -21.7741 -70.1915 0 88.8779 73.508 72.9534 8.35656 -1.07812 18.8559 14.8026 -135.067 37.3746 151.766 -123.451 75.8662 144.064 -1.01166 -19.5854 -32.2816 -59.4957 37.5808 -122.102 16.035 -4.60806 -104.775 0.420957 0.000575795 0.35866 -2.13316 6.7293 46.0357 -125.336 -10.8014 100.714 10.844 -0.519404 87.1158 0.58676 0.000329834 0.0646656 -54.8666 8.19552 93.4961 -1.52886 34.1183 -1.28416 1.43103 -13.8211 -1.20057 2.9151 -9.21708 13.0315 -39.0835 -14.5647 81.7383 0.780831 29.5131 0.823655 -0.389936 3.19026 -0.038237 0.844943 -3.94508 -2.94505 
31.6395 95.1097 165.215 61.3129 -55.2075 -21.7829 -70.1915 0 88.8779 73.7361 72.9679 8.24252 -1.07239 18.9183 14.6279 -134.856 37.6851 152.446 -126.517 76.9673 147.161 -0.990892 -19.5396 -32.1624 -59.5386 37.501 -122.025 15.6978 -4.56226 -104.955 0.420957 0.000575795 0.35866 -2.14916 6.73187 46.2511 -125.481 -10.7024 100.752 10.3532 -0.518841 86.9976 0.58676 0.000329834 0.0646656 -55.017 8.27187 93.6725 -1.56615 34.079 -1.74051 1.2231 -13.7237 -1.19231 3.01402 -9.48352 13.6409 -39.1262 -14.4566 81.8869 0.706102 29.4815 0.662395 -0.372537 3.13668 -0.0370064 0.774951 -3.78137 -2.52814 
31.6494 95.1307 165.231 61.2926 -55.1724 -21.745 -70.1915 0 88.8779 73.8698 72.877 8.33684 -1.04295 18.9159 14.3451 -134.862 37.2138 151.545 -123.904 75.8786 144.622 -0.970329 -19.5009 -32.0252 -59.631 37.5628 -121.954 15.8796 -4.60596 -104.918 0.420957 0.000575795 0.35866 -2.16702 6.75244 46.4076 -125.551 -10.6748 100.817 9.21827 -0.479317 86.8985 0.58676 0.000329834 0.0646656 -54.9627 8.27538 93.5185 -1.52477 34.1316 -1.27841 1.34133 -14.1496 -1.22303 2.51911 -8.54863 12.8691 -39.2188 -14.3955 81.8388 0.719763 29.3248 0.77691 -0.614403 3.34162 -0.0136673 0.866888 -4.19105 -2.93721 
31.657 95.1206 165.236 61.2314 -55.0628 -21.758 -70.1915 0 88.8779 73.6749 72.7888 8.66886 -0.985428 18.9041 14.1783 -134.831 37.1774 151.422 -123.255 75.679 143.947 -0.982796 -19.5506 -32.0447 -59.6526 37.4142 -121.926 15.3242 -4.43641 -104.913 0.420957 0.000575795 0.35866 -2.17118 6.73684 46.5394 -125.542 -10.631 100.887 9.48536 -0.497174 86.8762 0.58676 0.000329834 0.0646656 -54.9208 8.18655 93.312 -1.55531 34.0716 -1.7052 1.2874 -13.4113 -1.17184 3.28945 -9.92005 13.7078 -39.0967 -14.4413 81.8488 0.720979 29.4857 0.416258 -0.610984 3.26639 -0.0085189 0.791107 -4.10121 -2.4 
31.6944 95.1801 165.29 61.387 -55.2729 -21.7366 -70.1915 0 88.8779 74.0699 72.8552 8.37672 -0.91642 19.0446 13.8473 -134.438 37.4382 151.658 -125.052 76.5858 146.033 -0.911755 -19.3809 -31.6526 -59.3222 37.6143 -122.21 15.501 -4.48943 -104.912 0.420957 0.000575795 0.35866 -2.17145 6.70458 46.696 -125.519 -10.6109 100.882 9.88439 -0.50493 86.9405 0.58676 0.000329834 0.0646656 -55.1425 8.205 93.4919 -1.52595 34.1439 -1.4933 1.1342 -14.7969 -1.26881 1.65694 -7.32574 13.6787 -39.3994 -14.3284 82.0373 0.605323 29.1796 0.415051 -0.00751949 3.05178 -0.0881227 0.68724 -3.40019 -2.15371 
31.8162 95.1387 165.287 61.5251 -55.2055 -21.6789 -70.1915 0 88.8779 73.9583 72.7676 8.75704 -0.723379 19.1064 13.5011 -134.742 37.5407 152.151 -126.942 76.9503 147.435 -0.922308 -19.4016 -31.7238 -59.4494 37.567 -122.003 15.723 -4.56435 -104.937 0.420957 0.000575795 0.35866 -2.18469 6.76256 46.6104 -125.538 -10.584 100.62 9.68425 -0.461706 87.1702 0.58676 0.000329834 0.0646656 -55.2952 8.03384 93.5897 -1.45618 33.9293 -1.07561 1.61074 -14.1468 -1.22358 2.50292 -8.49354 12.7189 -39.3369 -14.7933 81.5887 0.832193 29.5513 1.2188 -0.279272 3.08241 -0.0476304 0.851214 -3.80853 -3.09788 
31.8106 95.1506 165.305 61.5689 -55.1978 -21.6664 -70.1915 0 88.8779 74.0513 72.857 8.53954 -0.762552 19.1499 13.6006 -134.666 37.2664 151.297 -123.966 76.0825 144.793 -0.928381 -19.4368 -31.7066 -59.4185 37.531 -122.162 15.8418 -4.56411 -104.82 0.420957 0.000575795 0.35866 -2.16038 6.71902 46.4707 -125.647 -10.6424 100.452 9.61739 -0.465305 87.3148 0.58676 0.000329834 0.0646656 -55.3038 7.98882 93.4911 -1.48844 33.9989 -1.33634 1.41126 -14.2369 -1.23022 2.40402 -8.43403 13.2567 -39.3622 -14.7866 81.6508 0.804117 29.5501 1.03214 -0.391498 3.08485 -0.0299689 0.778007 -3.82645 -2.52002 
31.7855 95.1576 165.345 61.623 -55.2405 -21.6174 -70.1915 0 88.8779 74.6899 72.8596 7.87847 -0.933681 19.0951 13.6055 -134.567 36.9292 150.565 -120.62 74.891 142.042 -0.890361 -19.2973 -31.6177 -59.3548 37.5705 -122.124 15.5929 -4.5294 -104.951 0.420957 0.000575795 0.35866 -2.20233 6.82612 46.5592 -125.651 -10.6613 100.477 9.69905 -0.46943 87.3044 0.58676 0.000329834 0.0646656 -55.3476 8.04618 93.475 -1.50462 34.1119 -1.41218 1.01537 -14.7697 -1.26727 1.72568 -7.36783 13.3749 -39.4349 -14.709 81.669 0.799498 29.5112 0.955876 -0.518292 3.08796 -0.0106514 0.810631 -4.04711 -2.59481 
31.8654 95.0867 165.32 61.7017 -55.0076 -21.5002 -70.1915 0 88.8779 74.1743 72.8538 8.43688 -0.757603 19.1466 13.6222 -134.736 37.1294 151.209 -123.581 75.8009 144.459 -0.964651 -19.5573 -31.8214 -59.4033 37.4572 -122.059 15.8367 -4.58125 -104.88 0.420957 0.000575795 0.35866 -2.15155 6.65856 46.6315 -125.701 -10.2916 100.635 9.46431 -0.45309 87.2814 0.58676 0.000329834 0.0646656 -55.328 7.87082 93.2974 -1.50637 33.9296 -1.53782 1.34671 -13.4971 -1.17721 3.3384 -9.97587 13.5404 -39.2757 -14.9282 81.5905 0.854955 29.8922 1.1189 -0.815306 3.11864 0.0338002 0.929273 -4.58203 -3.13733 
